<svg width="160" height="64" viewBox="0 0 160 64" fill="none" xmlns="http://www.w3.org/2000/svg">
<g clip-path="url(#clip0_47_9810)">
<path d="M27.1699 21.8012C27.7452 21.8012 28.2628 21.9117 28.7229 22.1327C29.1995 22.3352 29.635 22.5654 30.0294 22.8232C30.4402 23.0811 30.8264 23.3204 31.1879 23.5414C31.5494 23.744 31.9192 23.8453 32.2971 23.8453C32.5929 23.8269 32.9298 23.7808 33.3077 23.7072C33.6364 23.6335 34.0144 23.523 34.4416 23.3757C34.8853 23.21 35.3784 22.9706 35.9206 22.6575C35.3784 23.2468 34.9347 23.744 34.5896 24.1491C34.2609 24.5359 34.0062 24.8581 33.8254 25.1159C33.6118 25.4106 33.4557 25.6408 33.3571 25.8065C33.2584 26.0091 33.1106 26.3129 32.9134 26.718C32.7326 27.0864 32.4861 27.5836 32.1739 28.2097C31.8617 28.8174 31.4672 29.6185 30.9907 30.6129C30.9907 29.3422 30.8757 28.357 30.6456 27.6572C30.432 26.9574 30.1937 26.4234 29.9307 26.0551C29.6185 25.6316 29.2652 25.3645 28.8708 25.254C28.5093 25.1988 28.1478 25.2725 27.7862 25.475C27.4247 25.6592 27.0632 25.9354 26.7016 26.3037C26.3565 26.672 26.0196 27.114 25.691 27.6296C25.3788 28.1268 25.0912 28.6516 24.8282 29.2041C24.5817 29.7565 24.3763 30.3182 24.212 30.8891C24.0477 31.4416 23.9409 31.9572 23.8916 32.436C23.8423 32.8596 23.834 33.3568 23.8669 33.9276C23.8998 34.48 23.9737 35.0509 24.0887 35.6402C24.2038 36.2111 24.3517 36.7727 24.5324 37.3252C24.7132 37.8777 24.9351 38.3749 25.198 38.8168C25.4774 39.2403 25.7896 39.5903 26.1347 39.8665C26.4798 40.1243 26.8742 40.244 27.3179 40.2256C27.8109 40.1888 28.2956 40.023 28.7722 39.7283C29.183 39.4889 29.6021 39.1207 30.0294 38.6235C30.4566 38.1078 30.8264 37.3805 31.1386 36.4412L34.7867 37.1871C33.735 38.6235 32.708 39.7008 31.7055 40.4189C30.7195 41.1371 29.8321 41.6435 29.0433 41.9382C28.1231 42.2697 27.2521 42.4262 26.4305 42.4078C25.3952 42.2788 24.4256 41.929 23.5218 41.3581C22.618 40.7872 21.8374 40.0967 21.1801 39.2864C20.5392 38.4578 20.038 37.5554 19.6764 36.5794C19.3149 35.6033 19.1588 34.6458 19.2081 33.7066C19.241 33.0805 19.356 32.3531 19.5532 31.5244C19.7504 30.6773 20.0133 29.8118 20.342 28.9278C20.6871 28.0439 21.0979 27.1784 21.5745 26.3313C22.051 25.4842 22.5769 24.7292 23.1521 24.0663C23.7272 23.3849 24.3517 22.8417 25.0254 22.4365C25.7156 22.013 26.4305 21.8012 27.1699 21.8012ZM35.3838 29.8671L39.9194 29.9223C39.6564 31.0457 39.4593 32.0032 39.3278 32.795C39.2127 33.5869 39.1388 34.2499 39.106 34.7839C39.0402 35.3916 39.0238 35.9073 39.0567 36.3308C39.106 36.7175 39.1881 37.1318 39.3031 37.5738C39.4018 37.9421 39.5497 38.3657 39.7468 38.8444C39.944 39.3232 40.207 39.802 40.5356 40.2809C40.3384 40.2072 40.1248 40.1519 39.8948 40.1151C39.6647 40.0782 39.4511 40.0506 39.2538 40.0323C39.0238 40.0138 38.7937 40.0138 38.5636 40.0323C38.3336 40.0506 38.0788 40.0782 37.7995 40.1151C37.5695 40.1519 37.2901 40.198 36.9614 40.2532C36.6327 40.3084 36.2876 40.3821 35.9261 40.4742C36.1726 39.6455 36.3616 38.9273 36.4931 38.3196C36.641 37.7119 36.7478 37.2055 36.8135 36.8004C36.8793 36.3216 36.9203 35.9348 36.9367 35.6402C36.9367 35.2719 36.9367 34.8575 36.9367 34.3972C36.9367 33.9184 36.9367 33.458 36.9367 33.0161C36.9367 32.5741 36.9285 32.1874 36.9121 31.8559C36.8957 31.506 36.8628 31.285 36.8135 31.193L36.567 30.9167C36.4684 30.8246 36.3205 30.6957 36.1233 30.53C35.9426 30.3458 35.6961 30.1249 35.3838 29.8671ZM37.134 25.6131C37.4791 25.4106 37.8242 25.3553 38.1692 25.4474C38.5308 25.5395 38.8101 25.7144 39.0074 25.9722C39.2045 26.23 39.2703 26.5339 39.2045 26.8838C39.1553 27.2337 38.8923 27.5744 38.4158 27.9058C37.9392 28.2189 37.5202 28.3294 37.1586 28.2373C36.7971 28.1452 36.5423 27.9519 36.3945 27.6572C36.2466 27.3626 36.2219 27.0219 36.3205 26.6352C36.4192 26.23 36.6903 25.8894 37.134 25.6131ZM42.5377 39.1759C42.6528 38.5682 42.735 38.0342 42.7843 37.5738C42.85 37.095 42.8993 36.6991 42.9321 36.386C42.965 36.0177 42.9814 35.7046 42.9814 35.4468C42.965 35.1338 42.9485 34.7655 42.9321 34.342C42.9321 33.9 42.9157 33.4672 42.8828 33.0436C42.8664 32.6017 42.8418 32.215 42.8089 31.8835C42.7761 31.5336 42.735 31.285 42.6856 31.1377C42.6199 30.9903 42.5295 30.8338 42.4145 30.6681C42.1844 30.355 41.8475 30.0512 41.4038 29.7565C41.7818 29.6644 42.1023 29.5908 42.3652 29.5356C42.6446 29.4619 42.8746 29.3975 43.0554 29.3422C43.2526 29.2685 43.4251 29.2041 43.5731 29.1489C43.7045 29.0936 43.8606 29.0384 44.0414 28.9832C44.1893 28.9463 44.3701 28.9003 44.5837 28.845C44.7973 28.7898 45.0438 28.7253 45.3232 28.6516L45.2492 31.1653C45.7751 30.4656 46.3092 29.9407 46.8515 29.5908C47.3938 29.2409 47.9032 28.9923 48.3797 28.845C48.9221 28.6609 49.4561 28.5688 49.982 28.5688C50.6393 28.6056 51.2473 28.7253 51.8061 28.9278C52.3812 29.1305 52.8742 29.3698 53.285 29.6461C53.7123 29.9039 54.0574 30.1801 54.3203 30.4748C54.5833 30.7694 54.7394 31.0272 54.7887 31.2482C54.9859 31.9664 55.0352 32.6293 54.9366 33.237C54.838 33.8263 54.7065 34.4064 54.5422 34.9773C54.3943 35.5297 54.2629 36.0822 54.1478 36.6346C54.0492 37.1871 54.0903 37.7856 54.2711 38.4301C54.3368 38.5958 54.4025 38.7616 54.4682 38.9273C54.534 39.0746 54.6162 39.2219 54.7147 39.3693C54.8133 39.5166 54.9284 39.6363 55.0598 39.7283C54.8791 39.71 54.6983 39.7008 54.5175 39.7008C54.3368 39.6823 54.1725 39.6639 54.0245 39.6455C53.8438 39.6271 53.6794 39.6087 53.5316 39.5903C53.3672 39.5718 53.1454 39.5626 52.866 39.5626C52.3895 39.5626 51.6499 39.5903 50.6475 39.6455C50.7955 39.2588 50.9104 38.9365 50.9926 38.6787C51.0912 38.4024 51.1734 38.1815 51.2391 38.0157C51.3048 37.8132 51.3541 37.6566 51.387 37.5462C51.5843 37.0121 51.6992 36.4045 51.7321 35.7231C51.7814 35.0417 51.7403 34.3512 51.6089 33.6514C51.5596 33.412 51.4774 33.1265 51.3623 32.795C51.2473 32.4636 51.0912 32.1413 50.894 31.8282C50.7133 31.5152 50.4914 31.2482 50.2285 31.0272C49.982 30.8062 49.6944 30.6773 49.3657 30.6405C49.037 30.6037 48.6673 30.6957 48.2565 30.9167C47.8621 31.1377 47.4348 31.5429 46.9747 32.1321C46.6296 32.6293 46.3584 33.237 46.1613 33.9552C45.9805 34.5629 45.8573 35.3272 45.7915 36.2479C45.7258 37.1503 45.8244 38.2091 46.0873 39.4245C45.8573 39.3877 45.6436 39.3693 45.4465 39.3693C45.2492 39.3509 45.0849 39.3324 44.9534 39.314C44.7891 39.2956 44.6412 39.2772 44.5097 39.2588C44.3619 39.2588 44.1975 39.2496 44.0167 39.2311C43.8524 39.2311 43.647 39.2311 43.4005 39.2311C43.154 39.2128 42.8664 39.1943 42.5377 39.1759ZM63.323 37.7671C63.7831 37.7671 64.2104 37.7119 64.6048 37.6014C64.9334 37.5093 65.2457 37.362 65.5415 37.1594C65.8537 36.9385 66.0591 36.6162 66.1577 36.1926C66.4864 36.2663 66.7658 36.3308 66.9958 36.386C67.2258 36.4228 67.4231 36.4597 67.5874 36.4965C67.7682 36.5518 67.9243 36.5885 68.0557 36.607C68.1872 36.6439 68.3433 36.6806 68.5241 36.7175C68.6884 36.7543 68.8856 36.8004 69.1157 36.8556C69.3622 36.8925 69.6498 36.9477 69.9784 37.0213C69.732 36.9845 69.4772 37.0121 69.2143 37.1042C68.9678 37.1963 68.7295 37.2976 68.4995 37.408C68.2366 37.537 67.99 37.6935 67.76 37.8777C67.612 37.9881 67.4395 38.1538 67.2423 38.3749C67.0616 38.5958 66.7986 38.8076 66.4535 39.0102C66.1084 39.2128 65.6483 39.3877 65.0731 39.535C64.5144 39.6639 63.7913 39.71 62.904 39.6731C61.8358 39.6363 60.9402 39.4245 60.2172 39.0378C59.4941 38.6327 58.9107 38.1447 58.467 37.5738C58.0233 36.9845 57.7028 36.3492 57.5057 35.6678C57.3084 34.9865 57.2016 34.3512 57.1852 33.7619C57.1688 33.1726 57.3249 32.5556 57.6535 31.9111C57.9822 31.2666 58.4423 30.6773 59.034 30.1433C59.6419 29.6092 60.3732 29.1764 61.2278 28.845C62.0823 28.4951 63.0189 28.3202 64.0379 28.3202C64.6294 28.3202 65.1718 28.403 65.6647 28.5688C66.1741 28.7161 66.6343 28.9186 67.0451 29.1764C67.4724 29.4343 67.8422 29.729 68.1544 30.0604C68.4666 30.3735 68.7295 30.6957 68.9432 31.0272C69.1568 31.3771 69.3376 31.7454 69.4854 32.1321C69.6169 32.4636 69.7238 32.8411 69.8059 33.2647C69.888 33.6882 69.9127 34.1209 69.8798 34.5629C68.6309 34.5997 67.6203 34.6274 66.8479 34.6458C66.092 34.6642 65.5004 34.6734 65.0731 34.6734H63.9639H63.1258C62.83 34.6734 62.4438 34.6826 61.9672 34.701C61.4907 34.7194 60.9073 34.7471 60.2172 34.7839C60.2993 35.5205 60.5047 36.0913 60.8334 36.4965C61.1784 36.8832 61.54 37.1778 61.9179 37.3805C62.3452 37.6014 62.8136 37.7303 63.323 37.7671ZM61.1045 32.795C61.6304 32.8319 62.0659 32.8596 62.411 32.8779C62.7725 32.8963 63.0683 32.9148 63.2984 32.9332C63.5448 32.9516 63.742 32.9608 63.8899 32.9608H64.5062C64.917 32.9608 65.6811 32.9332 66.7986 32.8779C66.7493 32.0676 66.5932 31.4508 66.3303 31.0272C66.0837 30.6037 65.8208 30.2906 65.5415 30.088C65.2128 29.8671 64.8513 29.7381 64.4569 29.7013C63.3887 29.7198 62.5917 29.9684 62.0659 30.4471C61.5564 30.9259 61.236 31.7086 61.1045 32.795ZM80.0903 21.3869C80.9777 21.4237 81.8733 21.6078 82.7771 21.9393C83.6974 22.2524 84.5437 22.768 85.3161 23.4862C86.0884 24.186 86.7458 25.0975 87.288 26.2208C87.8304 27.3258 88.1672 28.6793 88.2987 30.2814C88.4137 31.5889 88.2659 32.8871 87.855 34.1762C87.4606 35.4468 86.9101 36.6162 86.2035 37.6843C85.4968 38.7524 84.6834 39.6639 83.7632 40.4189C82.8429 41.1555 81.9226 41.6435 81.0024 41.8829C80.4436 42.0302 79.8274 42.0487 79.1537 41.9382C78.4963 41.8093 77.8225 41.5791 77.1324 41.2476C76.4586 40.8977 75.7931 40.4558 75.1357 39.9217C74.4948 39.3877 73.9114 38.78 73.3856 38.0986C72.8597 37.3989 72.416 36.6439 72.0545 35.8336C71.7094 35.0233 71.4958 34.1762 71.4136 33.2922C71.3314 32.5556 71.3232 31.7454 71.389 30.8615C71.4711 29.9591 71.6272 29.066 71.8573 28.1821C72.1038 27.2797 72.4407 26.4142 72.8679 25.5855C73.3116 24.7384 73.8704 24.0018 74.5442 23.3757C75.2179 22.7312 76.0067 22.234 76.9105 21.8841C77.8307 21.5158 78.8907 21.35 80.0903 21.3869ZM75.678 32.5741C75.4479 34.5445 75.6123 36.1282 76.171 37.3252C76.7462 38.5222 77.6089 39.2496 78.7593 39.5074C79.3179 39.6363 79.8521 39.5074 80.3615 39.1207C80.8873 38.7156 81.3639 38.1355 81.7912 37.3805C82.2185 36.6254 82.5882 35.7415 82.9004 34.7287C83.2126 33.7158 83.4427 32.6569 83.5906 31.552C83.7385 30.4471 83.7467 29.4527 83.6152 28.5688C83.5002 27.6664 83.2948 26.9022 82.999 26.2761C82.7032 25.6316 82.3416 25.1343 81.9144 24.7845C81.5036 24.4346 81.0764 24.2412 80.6326 24.2044C79.8603 24.1491 79.1865 24.3793 78.6113 24.8949C78.0362 25.3922 77.5514 26.0459 77.157 26.8562C76.7626 27.6664 76.4422 28.578 76.1957 29.5908C75.9656 30.6037 75.793 31.5981 75.678 32.5741ZM90.3258 39.1759C90.4408 38.5682 90.5228 38.0342 90.5719 37.5738C90.6378 37.095 90.6869 36.6991 90.7198 36.386C90.7528 36.0177 90.7689 35.7046 90.7689 35.4468C90.7528 35.1338 90.736 34.7655 90.7198 34.342C90.7198 33.9 90.7037 33.4672 90.6707 33.0436C90.6539 32.6017 90.6294 32.215 90.5964 31.8835C90.5635 31.5336 90.5228 31.285 90.4737 31.1377C90.4078 30.9903 90.3174 30.8338 90.2024 30.6681C89.9724 30.355 89.6351 30.0512 89.1913 29.7565C89.5692 29.6644 89.8897 29.5908 90.1526 29.5356C90.4324 29.4619 90.6623 29.3975 90.8432 29.3422C91.0402 29.2685 91.2127 29.2041 91.3607 29.1489C91.4925 29.0936 91.6481 29.0384 91.829 28.9832C91.977 28.9463 92.1579 28.9003 92.3717 28.845C92.5849 28.7898 92.8317 28.7253 93.1107 28.6516L93.0371 31.1653C93.563 30.4656 94.0966 29.9407 94.6392 29.5908C95.1812 29.2409 95.691 28.9923 96.1678 28.845C96.7097 28.6609 97.244 28.5688 97.7699 28.5688C98.4269 28.6056 99.0348 28.7253 99.5936 28.9278C100.169 29.1305 100.662 29.3698 101.073 29.6461C101.5 29.9039 101.845 30.1801 102.108 30.4748C102.371 30.7694 102.527 31.0272 102.576 31.2482C102.773 31.9664 102.823 32.6293 102.724 33.237C102.626 33.8263 102.494 34.4064 102.33 34.9773C102.182 35.5297 102.05 36.0822 101.935 36.6346C101.837 37.1871 101.878 37.7856 102.059 38.4301C102.125 38.5958 102.19 38.7616 102.256 38.9273C102.322 39.0746 102.404 39.2219 102.503 39.3693C102.601 39.5166 102.716 39.6363 102.848 39.7283C102.667 39.71 102.486 39.7008 102.305 39.7008C102.125 39.6823 101.96 39.6639 101.812 39.6455C101.632 39.6271 101.467 39.6087 101.319 39.5903C101.155 39.5718 100.933 39.5626 100.654 39.5626C100.177 39.5626 99.4379 39.5903 98.4353 39.6455C98.5832 39.2588 98.6982 38.9365 98.7802 38.6787C98.8791 38.4024 98.9611 38.1815 99.027 38.0157C99.0922 37.8132 99.142 37.6566 99.175 37.5462C99.372 37.0121 99.487 36.4045 99.52 35.7231C99.569 35.0417 99.5284 34.3512 99.3966 33.6514C99.3475 33.412 99.2654 33.1265 99.1497 32.795C99.0348 32.4636 98.8791 32.1413 98.6821 31.8282C98.5012 31.5152 98.2789 31.2482 98.016 31.0272C97.7699 30.8062 97.4824 30.6773 97.1536 30.6405C96.8247 30.6037 96.4552 30.6957 96.0444 30.9167C95.6496 31.1377 95.2226 31.5429 94.7626 32.1321C94.417 32.6293 94.1463 33.237 93.9493 33.9552C93.7684 34.5629 93.645 35.3272 93.5791 36.2479C93.5132 37.1503 93.6121 38.2091 93.875 39.4245C93.645 39.3877 93.4312 39.3693 93.2341 39.3693C93.0371 39.3509 92.8724 39.3324 92.7412 39.314C92.5772 39.2956 92.4292 39.2772 92.2974 39.2588C92.1495 39.2588 91.9854 39.2496 91.8045 39.2311C91.6404 39.2311 91.435 39.2311 91.1882 39.2311C90.9414 39.2128 90.6539 39.1943 90.3258 39.1759ZM111.111 37.7671C111.571 37.7671 111.998 37.7119 112.392 37.6014C112.721 37.5093 113.033 37.362 113.329 37.1594C113.641 36.9385 113.847 36.6162 113.945 36.1926C114.274 36.2663 114.553 36.3308 114.783 36.386C115.014 36.4228 115.211 36.4597 115.375 36.4965C115.556 36.5518 115.712 36.5885 115.843 36.607C115.975 36.6439 116.131 36.6806 116.312 36.7175C116.476 36.7543 116.674 36.8004 116.904 36.8556C117.15 36.8925 117.438 36.9477 117.766 37.0213C117.52 36.9845 117.265 37.0121 117.002 37.1042C116.756 37.1963 116.517 37.2976 116.287 37.408C116.024 37.537 115.778 37.6935 115.548 37.8777C115.4 37.9881 115.227 38.1538 115.03 38.3749C114.849 38.5958 114.586 38.8076 114.241 39.0102C113.896 39.2128 113.436 39.3877 112.861 39.535C112.302 39.6639 111.579 39.71 110.691 39.6731C109.624 39.6363 108.728 39.4245 108.005 39.0378C107.282 38.6327 106.698 38.1447 106.254 37.5738C105.811 36.9845 105.49 36.3492 105.293 35.6678C105.096 34.9865 104.99 34.3512 104.973 33.7619C104.957 33.1726 105.112 32.5556 105.441 31.9111C105.77 31.2666 106.23 30.6773 106.822 30.1433C107.43 29.6092 108.161 29.1764 109.016 28.845C109.87 28.4951 110.807 28.3202 111.826 28.3202C112.417 28.3202 112.96 28.403 113.452 28.5688C113.962 28.7161 114.422 28.9186 114.833 29.1764C115.26 29.4343 115.63 29.729 115.942 30.0604C116.254 30.3735 116.517 30.6957 116.731 31.0272C116.944 31.3771 117.125 31.7454 117.273 32.1321C117.405 32.4636 117.511 32.8411 117.593 33.2647C117.676 33.6882 117.701 34.1209 117.668 34.5629C116.418 34.5997 115.408 34.6274 114.635 34.6458C113.879 34.6642 113.288 34.6734 112.861 34.6734H111.752H110.914C110.618 34.6734 110.231 34.6826 109.755 34.701C109.279 34.7194 108.695 34.7471 108.005 34.7839C108.087 35.5205 108.293 36.0913 108.621 36.4965C108.966 36.8832 109.328 37.1778 109.706 37.3805C110.133 37.6014 110.602 37.7303 111.111 37.7671ZM108.892 32.795C109.418 32.8319 109.853 32.8596 110.198 32.8779C110.56 32.8963 110.856 32.9148 111.086 32.9332C111.333 32.9516 111.53 32.9608 111.678 32.9608H112.294C112.705 32.9608 113.469 32.9332 114.586 32.8779C114.537 32.0676 114.381 31.4508 114.118 31.0272C113.872 30.6037 113.609 30.2906 113.329 30.088C113 29.8671 112.639 29.7381 112.244 29.7013C111.177 29.7198 110.379 29.9684 109.853 30.4471C109.344 30.9259 109.024 31.7086 108.892 32.795ZM119.645 22.7404C119.957 22.9982 120.27 23.1915 120.582 23.3204C120.911 23.4309 121.207 23.5046 121.469 23.5414C121.765 23.5967 122.061 23.6059 122.356 23.5691C122.636 23.5322 122.924 23.4217 123.22 23.2376C123.515 23.0534 123.86 22.8601 124.254 22.6575C124.649 22.4549 125.109 22.28 125.635 22.1327C126.177 21.9669 126.826 21.8841 127.582 21.8841C127.911 21.8841 128.256 21.9577 128.618 22.105C128.996 22.2524 129.357 22.4457 129.702 22.6851C130.047 22.9061 130.359 23.1547 130.639 23.4309C130.935 23.7072 131.157 23.9834 131.304 24.2596C131.469 24.5359 131.584 24.987 131.649 25.6131C131.715 26.2208 131.74 26.8838 131.724 27.602C131.707 28.3202 131.649 29.0292 131.551 29.729C131.469 30.4287 131.345 30.9996 131.181 31.4416C130.984 31.8282 130.606 32.3255 130.047 32.9332C129.571 33.4488 128.856 34.1117 127.902 34.922C126.95 35.7323 125.668 36.6991 124.057 37.8224C125.01 37.804 125.807 37.7764 126.448 37.7395C127.106 37.6843 127.64 37.6291 128.05 37.5738C128.527 37.5001 128.905 37.4264 129.184 37.3528C129.431 37.2423 129.694 37.0858 129.973 36.8832C130.204 36.6991 130.45 36.4597 130.713 36.165C130.992 35.8704 131.263 35.4837 131.526 35.0049C131.576 35.9993 131.625 36.7819 131.674 37.3528C131.707 37.6843 131.731 37.9698 131.748 38.2091C131.764 38.4301 131.781 38.6879 131.797 38.9825C131.813 39.2403 131.822 39.535 131.822 39.8665C131.839 40.198 131.863 40.5478 131.896 40.9162C131.074 40.6768 130.326 40.4926 129.653 40.3637C128.979 40.2163 128.404 40.1151 127.927 40.0598C127.369 39.9862 126.868 39.9494 126.424 39.9494C125.964 39.9677 125.454 40.0138 124.895 40.0875C124.402 40.1611 123.811 40.2716 123.121 40.4189C122.447 40.5478 121.683 40.7412 120.828 40.999C120.763 40.7964 120.705 40.5939 120.655 40.3913C120.606 40.1703 120.565 39.9586 120.533 39.756C120.483 39.535 120.442 39.314 120.409 39.093C120.376 38.8721 120.343 38.6603 120.31 38.4578C120.277 38.2736 120.253 38.0802 120.237 37.8777C120.22 37.6751 120.204 37.4818 120.187 37.2976C121.502 36.3584 122.57 35.5113 123.392 34.7563C124.214 33.9828 124.862 33.3291 125.339 32.795C125.882 32.1689 126.292 31.5981 126.572 31.0824C126.851 30.4564 127.081 29.7657 127.262 29.0107C127.443 28.2557 127.5 27.5559 127.434 26.9114C127.385 26.2669 127.188 25.742 126.843 25.3369C126.497 24.9134 125.947 24.7292 125.191 24.7845C124.698 24.8213 124.23 25.0147 123.786 25.3645C123.359 25.7144 122.964 26.138 122.603 26.6352C122.241 27.1324 121.921 27.6664 121.642 28.2373C121.362 28.7898 121.124 29.3146 120.927 29.8118C120.746 30.309 120.598 30.7234 120.483 31.0548C120.385 31.3863 120.335 31.5612 120.335 31.5796C120.319 31.6165 120.294 31.4783 120.261 31.1653C120.245 30.8523 120.22 30.4656 120.187 30.0051C120.171 29.5264 120.146 29.0292 120.113 28.5135C120.08 27.9979 120.048 27.5652 120.015 27.2153C119.998 26.939 119.974 26.5799 119.941 26.138C119.892 25.4198 119.793 24.2872 119.645 22.7404ZM134.243 25.0883C134.819 24.8857 135.287 24.72 135.648 24.5911C136.01 24.4438 136.306 24.3241 136.536 24.232C136.799 24.1215 136.996 24.0202 137.128 23.9282L137.719 23.5967C137.949 23.4678 138.244 23.302 138.606 23.0995C138.968 22.8785 139.436 22.6023 140.011 22.2708C139.88 22.9706 139.781 23.6335 139.715 24.2596C139.666 24.8673 139.625 25.4106 139.592 25.8894C139.543 26.4418 139.518 26.9482 139.518 27.4086C139.502 27.7953 139.477 28.311 139.444 28.9555C139.428 29.6 139.403 30.2998 139.37 31.0548C139.338 31.8098 139.305 32.5833 139.272 33.3751C139.239 34.167 139.214 34.9128 139.198 35.6126C139.198 36.2939 139.206 36.8832 139.223 37.3805C139.255 37.8777 139.313 38.2184 139.395 38.4024C139.477 38.6235 139.584 38.8352 139.715 39.0378C139.83 39.2219 139.962 39.4337 140.109 39.6731C140.274 39.8941 140.471 40.1151 140.701 40.3361C140.323 40.4282 139.97 40.511 139.641 40.5847C139.313 40.6399 139.026 40.686 138.779 40.7228C138.483 40.7781 138.22 40.8241 137.99 40.8609C137.743 40.8793 137.407 40.9254 136.98 40.999C136.618 41.0542 136.158 41.1279 135.599 41.22C135.04 41.2936 134.35 41.3765 133.528 41.4686C133.955 41.174 134.293 40.8885 134.539 40.6123C134.802 40.3361 134.999 40.0967 135.131 39.8941C135.279 39.6547 135.369 39.4245 135.402 39.2036C135.418 39.0562 135.443 38.6603 135.476 38.0157C135.525 37.3528 135.566 36.5794 135.599 35.6954C135.648 34.7931 135.689 33.8355 135.722 32.8227C135.771 31.7915 135.804 30.8338 135.821 29.9499C135.837 29.066 135.845 28.311 135.845 27.6848C135.845 27.0587 135.821 26.6812 135.771 26.5523C135.706 26.4234 135.607 26.2761 135.476 26.1104C135.361 25.963 135.204 25.8065 135.007 25.6408C134.826 25.475 134.572 25.2909 134.243 25.0883Z" fill="#394BA7"/>
</g>
<defs>
<clipPath id="clip0_47_9810">
<rect width="122" height="22" fill="white" transform="translate(19 21)"/>
</clipPath>
</defs>
</svg>
